<mxfile host="Electron" modified="2024-06-15T00:09:02.487Z" agent="Mozilla/5.0 (Windows NT 10.0; Win64; x64) AppleWebKit/537.36 (KHTML, like Gecko) draw.io/24.5.3 Chrome/124.0.6367.207 Electron/30.0.6 Safari/537.36" etag="VRMqEjlpIPxBZHzAw6ru" version="24.5.3" type="device">
  <diagram id="GRUK_j3y1xE2fufv_Rm9" name="PÃ¡gina-1">
    <mxGraphModel dx="864" dy="515" grid="0" gridSize="10" guides="1" tooltips="1" connect="1" arrows="1" fold="1" page="1" pageScale="1" pageWidth="827" pageHeight="1169" background="#FFFFFF" math="0" shadow="0">
      <root>
        <mxCell id="0" />
        <mxCell id="1" parent="0" />
        <mxCell id="DZYuGlTrBMZbOHvZJMn7-13" style="edgeStyle=orthogonalEdgeStyle;rounded=0;orthogonalLoop=1;jettySize=auto;html=1;exitX=0;exitY=0.5;exitDx=0;exitDy=0;curved=1;entryX=0.5;entryY=0;entryDx=0;entryDy=0;fontColor=#000000;strokeColor=#000000;labelBackgroundColor=none;" edge="1" parent="1" source="mu-_Uv2Aq20LUrNudpeg-2" target="DZYuGlTrBMZbOHvZJMn7-3">
          <mxGeometry relative="1" as="geometry" />
        </mxCell>
        <mxCell id="DZYuGlTrBMZbOHvZJMn7-20" value="1" style="edgeLabel;html=1;align=center;verticalAlign=middle;resizable=0;points=[];fontColor=#000000;labelBackgroundColor=none;" vertex="1" connectable="0" parent="DZYuGlTrBMZbOHvZJMn7-13">
          <mxGeometry x="0.3867" relative="1" as="geometry">
            <mxPoint x="40" y="-5" as="offset" />
          </mxGeometry>
        </mxCell>
        <mxCell id="mu-_Uv2Aq20LUrNudpeg-2" value="&lt;div&gt;&lt;br&gt;&lt;/div&gt;&lt;div&gt;000&lt;/div&gt;&lt;div&gt;&lt;br&gt;&lt;/div&gt;&lt;div&gt;0&lt;/div&gt;" style="shape=lineEllipse;perimeter=ellipsePerimeter;whiteSpace=wrap;html=1;backgroundOutline=1;verticalAlign=top;fontColor=#000000;labelBackgroundColor=none;fillStyle=solid;fillColor=#F8CECD;strokeColor=#000000;" parent="1" vertex="1">
          <mxGeometry x="334" y="120" width="80" height="80" as="geometry" />
        </mxCell>
        <mxCell id="DZYuGlTrBMZbOHvZJMn7-14" style="edgeStyle=orthogonalEdgeStyle;rounded=0;orthogonalLoop=1;jettySize=auto;html=1;exitX=0.5;exitY=1;exitDx=0;exitDy=0;entryX=0.5;entryY=0;entryDx=0;entryDy=0;curved=1;fontColor=#000000;strokeColor=#000000;labelBackgroundColor=none;" edge="1" parent="1" source="DZYuGlTrBMZbOHvZJMn7-3" target="DZYuGlTrBMZbOHvZJMn7-4">
          <mxGeometry relative="1" as="geometry" />
        </mxCell>
        <mxCell id="DZYuGlTrBMZbOHvZJMn7-21" value="1" style="edgeLabel;html=1;align=center;verticalAlign=middle;resizable=0;points=[];fontColor=#000000;labelBackgroundColor=none;" vertex="1" connectable="0" parent="DZYuGlTrBMZbOHvZJMn7-14">
          <mxGeometry x="0.2167" y="-1" relative="1" as="geometry">
            <mxPoint x="-9" y="-3" as="offset" />
          </mxGeometry>
        </mxCell>
        <mxCell id="DZYuGlTrBMZbOHvZJMn7-29" style="edgeStyle=orthogonalEdgeStyle;rounded=0;orthogonalLoop=1;jettySize=auto;html=1;exitX=1;exitY=0.5;exitDx=0;exitDy=0;entryX=0.5;entryY=1;entryDx=0;entryDy=0;curved=1;fontColor=#000000;strokeColor=#000000;labelBackgroundColor=none;" edge="1" parent="1" source="DZYuGlTrBMZbOHvZJMn7-3" target="mu-_Uv2Aq20LUrNudpeg-2">
          <mxGeometry relative="1" as="geometry" />
        </mxCell>
        <mxCell id="DZYuGlTrBMZbOHvZJMn7-30" value="0" style="edgeLabel;html=1;align=center;verticalAlign=middle;resizable=0;points=[];fontColor=#000000;labelBackgroundColor=none;" vertex="1" connectable="0" parent="DZYuGlTrBMZbOHvZJMn7-29">
          <mxGeometry x="0.098" y="13" relative="1" as="geometry">
            <mxPoint x="-12" y="-7" as="offset" />
          </mxGeometry>
        </mxCell>
        <mxCell id="DZYuGlTrBMZbOHvZJMn7-3" value="&lt;div&gt;&lt;br&gt;&lt;/div&gt;&lt;div&gt;001&lt;/div&gt;&lt;div&gt;&lt;br&gt;&lt;/div&gt;&lt;div&gt;0&lt;/div&gt;" style="shape=lineEllipse;perimeter=ellipsePerimeter;whiteSpace=wrap;html=1;backgroundOutline=1;verticalAlign=top;fontColor=#000000;labelBackgroundColor=none;fillColor=#F8CECD;strokeColor=#000000;" vertex="1" parent="1">
          <mxGeometry x="140" y="210" width="80" height="80" as="geometry" />
        </mxCell>
        <mxCell id="DZYuGlTrBMZbOHvZJMn7-15" style="edgeStyle=orthogonalEdgeStyle;rounded=0;orthogonalLoop=1;jettySize=auto;html=1;exitX=0.5;exitY=1;exitDx=0;exitDy=0;entryX=0;entryY=0.5;entryDx=0;entryDy=0;curved=1;fontColor=#000000;strokeColor=#000000;labelBackgroundColor=none;" edge="1" parent="1" source="DZYuGlTrBMZbOHvZJMn7-4" target="DZYuGlTrBMZbOHvZJMn7-5">
          <mxGeometry relative="1" as="geometry" />
        </mxCell>
        <mxCell id="DZYuGlTrBMZbOHvZJMn7-22" value="0" style="edgeLabel;html=1;align=center;verticalAlign=middle;resizable=0;points=[];fontColor=#000000;labelBackgroundColor=none;" vertex="1" connectable="0" parent="DZYuGlTrBMZbOHvZJMn7-15">
          <mxGeometry x="-0.35" y="-1" relative="1" as="geometry">
            <mxPoint x="4" y="3" as="offset" />
          </mxGeometry>
        </mxCell>
        <mxCell id="DZYuGlTrBMZbOHvZJMn7-31" style="edgeStyle=orthogonalEdgeStyle;rounded=0;orthogonalLoop=1;jettySize=auto;html=1;exitX=1;exitY=0.5;exitDx=0;exitDy=0;entryX=0.5;entryY=1;entryDx=0;entryDy=0;curved=1;fontColor=#000000;strokeColor=#000000;labelBackgroundColor=none;" edge="1" parent="1" source="DZYuGlTrBMZbOHvZJMn7-4" target="mu-_Uv2Aq20LUrNudpeg-2">
          <mxGeometry relative="1" as="geometry" />
        </mxCell>
        <mxCell id="DZYuGlTrBMZbOHvZJMn7-32" value="1" style="edgeLabel;html=1;align=center;verticalAlign=middle;resizable=0;points=[];fontColor=#000000;labelBackgroundColor=none;" vertex="1" connectable="0" parent="DZYuGlTrBMZbOHvZJMn7-31">
          <mxGeometry x="0.2151" y="34" relative="1" as="geometry">
            <mxPoint x="-10" as="offset" />
          </mxGeometry>
        </mxCell>
        <mxCell id="DZYuGlTrBMZbOHvZJMn7-4" value="&lt;div&gt;&lt;br&gt;&lt;/div&gt;&lt;div&gt;010&lt;/div&gt;&lt;div&gt;&lt;br&gt;&lt;/div&gt;&lt;div&gt;0&lt;/div&gt;" style="shape=lineEllipse;perimeter=ellipsePerimeter;whiteSpace=wrap;html=1;backgroundOutline=1;verticalAlign=top;fontColor=#000000;labelBackgroundColor=none;fillColor=#F8CECD;strokeColor=#000000;" vertex="1" parent="1">
          <mxGeometry x="140" y="350" width="80" height="80" as="geometry" />
        </mxCell>
        <mxCell id="DZYuGlTrBMZbOHvZJMn7-16" style="edgeStyle=orthogonalEdgeStyle;rounded=0;orthogonalLoop=1;jettySize=auto;html=1;exitX=1;exitY=0.5;exitDx=0;exitDy=0;entryX=0;entryY=0.5;entryDx=0;entryDy=0;curved=1;fontColor=#000000;labelBackgroundColor=none;strokeColor=#000000;" edge="1" parent="1" source="DZYuGlTrBMZbOHvZJMn7-5" target="DZYuGlTrBMZbOHvZJMn7-6">
          <mxGeometry relative="1" as="geometry" />
        </mxCell>
        <mxCell id="DZYuGlTrBMZbOHvZJMn7-23" value="0" style="edgeLabel;html=1;align=center;verticalAlign=middle;resizable=0;points=[];fontColor=#000000;labelBackgroundColor=none;" vertex="1" connectable="0" parent="DZYuGlTrBMZbOHvZJMn7-16">
          <mxGeometry x="-0.6556" y="-13" relative="1" as="geometry">
            <mxPoint x="26" y="-4" as="offset" />
          </mxGeometry>
        </mxCell>
        <mxCell id="DZYuGlTrBMZbOHvZJMn7-33" style="edgeStyle=orthogonalEdgeStyle;rounded=0;orthogonalLoop=1;jettySize=auto;html=1;exitX=0.5;exitY=0;exitDx=0;exitDy=0;entryX=0.5;entryY=1;entryDx=0;entryDy=0;curved=1;fontColor=#000000;strokeColor=#000000;labelBackgroundColor=none;" edge="1" parent="1" source="DZYuGlTrBMZbOHvZJMn7-5" target="mu-_Uv2Aq20LUrNudpeg-2">
          <mxGeometry relative="1" as="geometry">
            <Array as="points">
              <mxPoint x="300" y="410" />
              <mxPoint x="374" y="410" />
            </Array>
          </mxGeometry>
        </mxCell>
        <mxCell id="DZYuGlTrBMZbOHvZJMn7-34" value="1" style="edgeLabel;html=1;align=center;verticalAlign=middle;resizable=0;points=[];fontColor=#000000;labelBackgroundColor=none;" vertex="1" connectable="0" parent="DZYuGlTrBMZbOHvZJMn7-33">
          <mxGeometry x="-0.093" y="16" relative="1" as="geometry">
            <mxPoint x="-24" y="12" as="offset" />
          </mxGeometry>
        </mxCell>
        <mxCell id="DZYuGlTrBMZbOHvZJMn7-5" value="&lt;div&gt;&lt;br&gt;&lt;/div&gt;&lt;div&gt;011&lt;/div&gt;&lt;div&gt;&lt;br&gt;&lt;/div&gt;&lt;div&gt;0&lt;/div&gt;" style="shape=lineEllipse;perimeter=ellipsePerimeter;whiteSpace=wrap;html=1;backgroundOutline=1;verticalAlign=top;fontColor=#000000;labelBackgroundColor=none;fillColor=#F8CECD;strokeColor=#000000;" vertex="1" parent="1">
          <mxGeometry x="260" y="470" width="80" height="80" as="geometry" />
        </mxCell>
        <mxCell id="DZYuGlTrBMZbOHvZJMn7-17" style="edgeStyle=orthogonalEdgeStyle;rounded=0;orthogonalLoop=1;jettySize=auto;html=1;exitX=1;exitY=0.5;exitDx=0;exitDy=0;entryX=0.5;entryY=1;entryDx=0;entryDy=0;curved=1;fontColor=#000000;strokeColor=#000000;labelBackgroundColor=none;" edge="1" parent="1" source="DZYuGlTrBMZbOHvZJMn7-6" target="DZYuGlTrBMZbOHvZJMn7-7">
          <mxGeometry relative="1" as="geometry" />
        </mxCell>
        <mxCell id="DZYuGlTrBMZbOHvZJMn7-24" value="1" style="edgeLabel;html=1;align=center;verticalAlign=middle;resizable=0;points=[];fontColor=#000000;labelBackgroundColor=none;" vertex="1" connectable="0" parent="DZYuGlTrBMZbOHvZJMn7-17">
          <mxGeometry x="-0.2" y="2" relative="1" as="geometry">
            <mxPoint x="-3" y="-9" as="offset" />
          </mxGeometry>
        </mxCell>
        <mxCell id="DZYuGlTrBMZbOHvZJMn7-35" style="edgeStyle=orthogonalEdgeStyle;rounded=0;orthogonalLoop=1;jettySize=auto;html=1;exitX=0.5;exitY=0;exitDx=0;exitDy=0;entryX=0.5;entryY=1;entryDx=0;entryDy=0;curved=1;fontColor=#000000;strokeColor=#000000;labelBackgroundColor=none;" edge="1" parent="1" source="DZYuGlTrBMZbOHvZJMn7-6" target="mu-_Uv2Aq20LUrNudpeg-2">
          <mxGeometry relative="1" as="geometry">
            <Array as="points">
              <mxPoint x="480" y="410" />
              <mxPoint x="374" y="410" />
            </Array>
          </mxGeometry>
        </mxCell>
        <mxCell id="DZYuGlTrBMZbOHvZJMn7-36" value="0" style="edgeLabel;html=1;align=center;verticalAlign=middle;resizable=0;points=[];fontColor=#000000;labelBackgroundColor=none;" vertex="1" connectable="0" parent="DZYuGlTrBMZbOHvZJMn7-35">
          <mxGeometry x="-0.1383" y="10" relative="1" as="geometry">
            <mxPoint x="52" y="-20" as="offset" />
          </mxGeometry>
        </mxCell>
        <mxCell id="DZYuGlTrBMZbOHvZJMn7-6" value="&lt;div&gt;&lt;br&gt;&lt;/div&gt;&lt;div&gt;100&lt;/div&gt;&lt;div&gt;&lt;br&gt;&lt;/div&gt;&lt;div&gt;0&lt;/div&gt;" style="shape=lineEllipse;perimeter=ellipsePerimeter;whiteSpace=wrap;html=1;backgroundOutline=1;verticalAlign=top;fontColor=#000000;labelBackgroundColor=none;fillColor=#F8CECD;strokeColor=#000000;" vertex="1" parent="1">
          <mxGeometry x="440" y="470" width="80" height="80" as="geometry" />
        </mxCell>
        <mxCell id="DZYuGlTrBMZbOHvZJMn7-18" style="edgeStyle=orthogonalEdgeStyle;rounded=0;orthogonalLoop=1;jettySize=auto;html=1;exitX=0.5;exitY=0;exitDx=0;exitDy=0;entryX=0.5;entryY=1;entryDx=0;entryDy=0;curved=1;fontColor=#000000;strokeColor=#000000;labelBackgroundColor=none;" edge="1" parent="1" source="DZYuGlTrBMZbOHvZJMn7-7" target="DZYuGlTrBMZbOHvZJMn7-8">
          <mxGeometry relative="1" as="geometry" />
        </mxCell>
        <mxCell id="DZYuGlTrBMZbOHvZJMn7-25" value="0" style="edgeLabel;html=1;align=center;verticalAlign=middle;resizable=0;points=[];fontColor=#000000;labelBackgroundColor=none;" vertex="1" connectable="0" parent="DZYuGlTrBMZbOHvZJMn7-18">
          <mxGeometry x="0.1818" y="3" relative="1" as="geometry">
            <mxPoint x="-7" y="13" as="offset" />
          </mxGeometry>
        </mxCell>
        <mxCell id="DZYuGlTrBMZbOHvZJMn7-37" style="edgeStyle=orthogonalEdgeStyle;rounded=0;orthogonalLoop=1;jettySize=auto;html=1;exitX=0;exitY=0.5;exitDx=0;exitDy=0;entryX=0.5;entryY=1;entryDx=0;entryDy=0;curved=1;fontColor=#000000;strokeColor=#000000;labelBackgroundColor=none;" edge="1" parent="1" source="DZYuGlTrBMZbOHvZJMn7-7" target="mu-_Uv2Aq20LUrNudpeg-2">
          <mxGeometry relative="1" as="geometry">
            <Array as="points">
              <mxPoint x="374" y="390" />
            </Array>
          </mxGeometry>
        </mxCell>
        <mxCell id="DZYuGlTrBMZbOHvZJMn7-38" value="1" style="edgeLabel;html=1;align=center;verticalAlign=middle;resizable=0;points=[];fontColor=#000000;labelBackgroundColor=none;" vertex="1" connectable="0" parent="DZYuGlTrBMZbOHvZJMn7-37">
          <mxGeometry x="0.0578" y="1" relative="1" as="geometry">
            <mxPoint x="57" y="-23" as="offset" />
          </mxGeometry>
        </mxCell>
        <mxCell id="DZYuGlTrBMZbOHvZJMn7-7" value="&lt;div&gt;&lt;br&gt;&lt;/div&gt;&lt;div&gt;101&lt;/div&gt;&lt;div&gt;&lt;br&gt;&lt;/div&gt;&lt;div&gt;0&lt;/div&gt;" style="shape=lineEllipse;perimeter=ellipsePerimeter;whiteSpace=wrap;html=1;backgroundOutline=1;verticalAlign=top;fontColor=#000000;labelBackgroundColor=none;fillColor=#F8CECD;strokeColor=#000000;" vertex="1" parent="1">
          <mxGeometry x="530" y="350" width="80" height="80" as="geometry" />
        </mxCell>
        <mxCell id="DZYuGlTrBMZbOHvZJMn7-19" style="edgeStyle=orthogonalEdgeStyle;rounded=0;orthogonalLoop=1;jettySize=auto;html=1;exitX=0.5;exitY=0;exitDx=0;exitDy=0;entryX=1;entryY=0.5;entryDx=0;entryDy=0;curved=1;fontColor=#000000;strokeColor=#000000;labelBackgroundColor=none;" edge="1" parent="1" source="DZYuGlTrBMZbOHvZJMn7-8" target="mu-_Uv2Aq20LUrNudpeg-2">
          <mxGeometry relative="1" as="geometry" />
        </mxCell>
        <mxCell id="DZYuGlTrBMZbOHvZJMn7-28" value="reset" style="edgeLabel;html=1;align=center;verticalAlign=middle;resizable=0;points=[];fontColor=#000000;labelBackgroundColor=none;" vertex="1" connectable="0" parent="DZYuGlTrBMZbOHvZJMn7-19">
          <mxGeometry x="-0.6364" y="6" relative="1" as="geometry">
            <mxPoint x="-25" y="-13" as="offset" />
          </mxGeometry>
        </mxCell>
        <mxCell id="DZYuGlTrBMZbOHvZJMn7-8" value="&lt;div&gt;&lt;br&gt;&lt;/div&gt;&lt;div&gt;110&lt;/div&gt;&lt;div&gt;&lt;br&gt;&lt;/div&gt;&lt;div&gt;1&lt;/div&gt;" style="shape=lineEllipse;perimeter=ellipsePerimeter;whiteSpace=wrap;html=1;backgroundOutline=1;verticalAlign=top;fontColor=#000000;labelBackgroundColor=none;fillColor=#F8CECD;strokeColor=#000000;" vertex="1" parent="1">
          <mxGeometry x="530" y="210" width="80" height="80" as="geometry" />
        </mxCell>
        <mxCell id="DZYuGlTrBMZbOHvZJMn7-45" style="edgeStyle=orthogonalEdgeStyle;rounded=0;orthogonalLoop=1;jettySize=auto;html=1;exitX=0;exitY=0.5;exitDx=0;exitDy=0;entryX=1;entryY=0;entryDx=0;entryDy=0;curved=1;fontColor=#000000;strokeColor=#000000;labelBackgroundColor=none;" edge="1" parent="1" source="DZYuGlTrBMZbOHvZJMn7-12" target="mu-_Uv2Aq20LUrNudpeg-2">
          <mxGeometry relative="1" as="geometry" />
        </mxCell>
        <mxCell id="DZYuGlTrBMZbOHvZJMn7-12" value="&lt;div&gt;&lt;br&gt;&lt;/div&gt;&lt;div&gt;111&lt;/div&gt;&lt;div&gt;&lt;br&gt;&lt;/div&gt;&lt;div&gt;0&lt;/div&gt;" style="shape=lineEllipse;perimeter=ellipsePerimeter;whiteSpace=wrap;html=1;backgroundOutline=1;verticalAlign=top;fillStyle=solid;fillColor=#FFF2CD;strokeColor=#000000;fontColor=#000000;labelBackgroundColor=none;" vertex="1" parent="1">
          <mxGeometry x="490" y="50" width="80" height="80" as="geometry" />
        </mxCell>
        <mxCell id="DZYuGlTrBMZbOHvZJMn7-40" style="edgeStyle=orthogonalEdgeStyle;rounded=0;orthogonalLoop=1;jettySize=auto;html=1;exitX=1;exitY=0;exitDx=0;exitDy=0;entryX=1;entryY=1;entryDx=0;entryDy=0;curved=1;fontColor=#000000;strokeColor=#000000;labelBackgroundColor=none;" edge="1" parent="1" source="DZYuGlTrBMZbOHvZJMn7-8" target="DZYuGlTrBMZbOHvZJMn7-8">
          <mxGeometry relative="1" as="geometry">
            <Array as="points">
              <mxPoint x="598" y="210" />
              <mxPoint x="650" y="210" />
              <mxPoint x="650" y="278" />
            </Array>
          </mxGeometry>
        </mxCell>
        <mxCell id="DZYuGlTrBMZbOHvZJMn7-41" value="X" style="edgeLabel;html=1;align=center;verticalAlign=middle;resizable=0;points=[];fontColor=#000000;labelBackgroundColor=none;" vertex="1" connectable="0" parent="DZYuGlTrBMZbOHvZJMn7-40">
          <mxGeometry x="0.3411" y="-3" relative="1" as="geometry">
            <mxPoint x="-7" y="-30" as="offset" />
          </mxGeometry>
        </mxCell>
        <mxCell id="DZYuGlTrBMZbOHvZJMn7-42" style="edgeStyle=orthogonalEdgeStyle;rounded=0;orthogonalLoop=1;jettySize=auto;html=1;exitX=0.5;exitY=0;exitDx=0;exitDy=0;entryX=0;entryY=0;entryDx=0;entryDy=0;curved=1;fontColor=#000000;strokeColor=#000000;labelBackgroundColor=none;" edge="1" parent="1" source="mu-_Uv2Aq20LUrNudpeg-2" target="mu-_Uv2Aq20LUrNudpeg-2">
          <mxGeometry relative="1" as="geometry">
            <Array as="points">
              <mxPoint x="374" y="80" />
              <mxPoint x="310" y="80" />
              <mxPoint x="310" y="132" />
            </Array>
          </mxGeometry>
        </mxCell>
        <mxCell id="DZYuGlTrBMZbOHvZJMn7-43" value="0" style="edgeLabel;html=1;align=center;verticalAlign=middle;resizable=0;points=[];fontColor=#000000;labelBackgroundColor=none;" vertex="1" connectable="0" parent="DZYuGlTrBMZbOHvZJMn7-42">
          <mxGeometry x="0.4523" y="1" relative="1" as="geometry">
            <mxPoint x="9" y="-5" as="offset" />
          </mxGeometry>
        </mxCell>
        <mxCell id="DZYuGlTrBMZbOHvZJMn7-46" value="X" style="text;html=1;align=center;verticalAlign=middle;resizable=0;points=[];autosize=1;strokeColor=none;fillColor=none;fontColor=#000000;labelBackgroundColor=none;" vertex="1" parent="1">
          <mxGeometry x="430" y="88" width="30" height="30" as="geometry" />
        </mxCell>
      </root>
    </mxGraphModel>
  </diagram>
</mxfile>
